<?xml version="1.0" encoding="iso-8859-1"?>
<!-- Generator: Adobe Illustrator 19.0.0, SVG Export Plug-In . SVG Version: 6.00 Build 0)  -->
<svg version="1.1" id="Layer_1" xmlns="http://www.w3.org/2000/svg" xmlns:xlink="http://www.w3.org/1999/xlink" x="0px" y="0px"
	 viewBox="0 0 512 512" style="enable-background:new 0 0 512 512;" xml:space="preserve">
<circle style="fill:#273B7A;" cx="256" cy="256" r="256"/>
<path style="fill:#121149;" d="M385.293,184.41L114.445,380.199l131.589,131.589c3.308,0.126,6.627,0.212,9.966,0.212
	c141.384,0,256-114.616,256-256c0-3.339-0.085-6.658-0.212-9.966L397.553,131.799L385.293,184.41z"/>
<polygon style="fill:#E3E3E3;" points="397.555,131.801 377.289,158.918 357.024,132.886 336.791,158.918 316.564,132.886 
	296.339,158.918 276.139,132.886 255.91,158.918 235.687,132.886 215.469,158.918 195.263,132.886 175.044,158.918 154.845,132.886 
	134.634,158.918 114.445,131.801 114.445,380.199 332.472,380.199 397.555,315.116 "/>
<polygon style="fill:#A4A4A4;" points="332.472,380.199 397.555,315.116 332.472,315.116 "/>
<polygon style="fill:#CCCACA;" points="114.445,380.199 114.445,131.801 134.634,158.918 154.845,132.886 175.044,158.918 
	195.263,132.886 215.469,158.918 235.686,132.886 255.912,158.918 255.912,380.199 "/>
<rect x="133.43" y="184.406" style="fill:#0CACF4;" width="246.225" height="32.54"/>
<rect x="133.43" y="184.406" style="fill:#0DA2D6;" width="123.121" height="32.54"/>
<g>
	<rect x="275.532" y="235.382" style="fill:#CBCBCB;" width="104.141" height="13.017"/>
	<rect x="275.532" y="261.827" style="fill:#CBCBCB;" width="104.141" height="13.017"/>
	<rect x="275.532" y="288.272" style="fill:#CBCBCB;" width="104.141" height="13.017"/>
	<rect x="275.532" y="314.716" style="fill:#CBCBCB;" width="56.941" height="13.017"/>
	<rect x="275.532" y="341.144" style="fill:#CBCBCB;" width="56.941" height="13.017"/>
</g>
<rect x="133.43" y="235.382" style="fill:#4859B8;" width="122.57" height="122.57"/>
<path style="fill:#FFFFFF;" d="M195.97,295.993v11.035h17.258c-2.448,7.899-9.809,13.638-18.513,13.638
	c-10.702,0-19.378-8.676-19.378-19.378c0-10.702,8.676-19.378,19.378-19.378c5.001,0,9.545,1.912,12.984,5.022l8.097-8.67
	c-5.554-5.089-12.955-8.195-21.082-8.195c-17.243,0-31.222,13.977-31.222,31.222c0,17.242,13.977,31.222,31.222,31.222
	s31.222-13.977,31.222-31.222c0-1.807-0.167-3.572-0.464-5.292H195.97V295.993z"/>
<g>
</g>
<g>
</g>
<g>
</g>
<g>
</g>
<g>
</g>
<g>
</g>
<g>
</g>
<g>
</g>
<g>
</g>
<g>
</g>
<g>
</g>
<g>
</g>
<g>
</g>
<g>
</g>
<g>
</g>
</svg>
